<svg xmlns="http://www.w3.org/2000/svg" xmlns:xlink="http://www.w3.org/1999/xlink" width="1800" zoomAndPan="magnify" viewBox="0 0 1350 449.999984" height="600" preserveAspectRatio="xMidYMid meet" version="1.0"><defs><g/><clipPath id="48ec6ee25e"><path d="M 260 131 L 303 131 L 303 217 L 260 217 Z M 260 131 " clip-rule="nonzero"/></clipPath><clipPath id="bfe43ebc8c"><path d="M -20.09375 238.175781 L 317.460938 71.417969 L 386.558594 211.28125 L 49 378.039062 Z M -20.09375 238.175781 " clip-rule="nonzero"/></clipPath><clipPath id="6f4f0a0021"><path d="M -20.09375 238.175781 L 317.460938 71.417969 L 386.558594 211.28125 L 49 378.039062 Z M -20.09375 238.175781 " clip-rule="nonzero"/></clipPath><clipPath id="73aae187d2"><path d="M 146 203 L 221 203 L 221 236 L 146 236 Z M 146 203 " clip-rule="nonzero"/></clipPath><clipPath id="ab94dfcb3e"><path d="M -20.09375 238.175781 L 317.460938 71.417969 L 386.558594 211.28125 L 49 378.039062 Z M -20.09375 238.175781 " clip-rule="nonzero"/></clipPath><clipPath id="51b32f1cef"><path d="M -20.09375 238.175781 L 317.460938 71.417969 L 386.558594 211.28125 L 49 378.039062 Z M -20.09375 238.175781 " clip-rule="nonzero"/></clipPath><clipPath id="23f7d4b878"><path d="M 34 230 L 110 230 L 110 367 L 34 367 Z M 34 230 " clip-rule="nonzero"/></clipPath><clipPath id="f0863d1524"><path d="M -20.09375 238.175781 L 317.460938 71.417969 L 386.558594 211.28125 L 49 378.039062 Z M -20.09375 238.175781 " clip-rule="nonzero"/></clipPath><clipPath id="87c1ef612a"><path d="M -20.09375 238.175781 L 317.460938 71.417969 L 386.558594 211.28125 L 49 378.039062 Z M -20.09375 238.175781 " clip-rule="nonzero"/></clipPath><clipPath id="312706262e"><path d="M 94 187 L 150 187 L 150 243 L 94 243 Z M 94 187 " clip-rule="nonzero"/></clipPath><clipPath id="3d5b157816"><path d="M -20.09375 238.175781 L 317.460938 71.417969 L 386.558594 211.28125 L 49 378.039062 Z M -20.09375 238.175781 " clip-rule="nonzero"/></clipPath><clipPath id="e737833279"><path d="M -20.09375 238.175781 L 317.460938 71.417969 L 386.558594 211.28125 L 49 378.039062 Z M -20.09375 238.175781 " clip-rule="nonzero"/></clipPath><clipPath id="10d62088e5"><path d="M 218 202 L 274 202 L 274 258 L 218 258 Z M 218 202 " clip-rule="nonzero"/></clipPath><clipPath id="9e3836bcca"><path d="M -20.09375 238.175781 L 317.460938 71.417969 L 386.558594 211.28125 L 49 378.039062 Z M -20.09375 238.175781 " clip-rule="nonzero"/></clipPath><clipPath id="64877e65db"><path d="M -20.09375 238.175781 L 317.460938 71.417969 L 386.558594 211.28125 L 49 378.039062 Z M -20.09375 238.175781 " clip-rule="nonzero"/></clipPath><clipPath id="461b4af290"><path d="M 276 81 L 332 81 L 332 137 L 276 137 Z M 276 81 " clip-rule="nonzero"/></clipPath><clipPath id="14dd0169e4"><path d="M -20.09375 238.175781 L 317.460938 71.417969 L 386.558594 211.28125 L 49 378.039062 Z M -20.09375 238.175781 " clip-rule="nonzero"/></clipPath><clipPath id="879d5da25b"><path d="M -20.09375 238.175781 L 317.460938 71.417969 L 386.558594 211.28125 L 49 378.039062 Z M -20.09375 238.175781 " clip-rule="nonzero"/></clipPath><clipPath id="6940d85059"><path d="M 212.789062 200.109375 L 274.292969 200.109375 L 274.292969 261.617188 L 212.789062 261.617188 Z M 212.789062 200.109375 " clip-rule="nonzero"/></clipPath><clipPath id="8d429f85e0"><path d="M 243.539062 200.109375 C 226.554688 200.109375 212.789062 213.878906 212.789062 230.863281 C 212.789062 247.847656 226.554688 261.617188 243.539062 261.617188 C 260.523438 261.617188 274.292969 247.847656 274.292969 230.863281 C 274.292969 213.878906 260.523438 200.109375 243.539062 200.109375 Z M 243.539062 200.109375 " clip-rule="nonzero"/></clipPath><clipPath id="39dcd4b752"><path d="M 29.652344 308.738281 L 91.160156 308.738281 L 91.160156 370.246094 L 29.652344 370.246094 Z M 29.652344 308.738281 " clip-rule="nonzero"/></clipPath><clipPath id="8457d5bfc5"><path d="M 60.40625 308.738281 C 43.421875 308.738281 29.652344 322.507812 29.652344 339.492188 C 29.652344 356.476562 43.421875 370.246094 60.40625 370.246094 C 77.390625 370.246094 91.160156 356.476562 91.160156 339.492188 C 91.160156 322.507812 77.390625 308.738281 60.40625 308.738281 Z M 60.40625 308.738281 " clip-rule="nonzero"/></clipPath></defs><g fill="#38b6ff" fill-opacity="1"><g transform="translate(349.219567, 326.249962)"><g><path d="M 89.609375 3.09375 C 76.179688 3.09375 64.96875 0.820312 55.96875 -3.71875 C 46.976562 -8.269531 40.3125 -14.9375 35.96875 -23.71875 C 31.625 -32.507812 29.453125 -43.414062 29.453125 -56.4375 L 29.453125 -122.484375 L 13.328125 -122.484375 C 8.367188 -122.484375 4.546875 -123.773438 1.859375 -126.359375 C -0.828125 -128.941406 -2.171875 -132.507812 -2.171875 -137.0625 C -2.171875 -141.8125 -0.828125 -145.425781 1.859375 -147.90625 C 4.546875 -150.394531 8.367188 -151.640625 13.328125 -151.640625 L 29.453125 -151.640625 L 29.453125 -179.859375 C 29.453125 -186.265625 31.15625 -191.117188 34.5625 -194.421875 C 37.976562 -197.734375 42.789062 -199.390625 49 -199.390625 C 55.195312 -199.390625 59.945312 -197.734375 63.25 -194.421875 C 66.5625 -191.117188 68.21875 -186.265625 68.21875 -179.859375 L 68.21875 -151.640625 L 101.09375 -151.640625 C 106.050781 -151.640625 109.875 -150.394531 112.5625 -147.90625 C 115.25 -145.425781 116.59375 -141.8125 116.59375 -137.0625 C 116.59375 -132.507812 115.25 -128.941406 112.5625 -126.359375 C 109.875 -123.773438 106.050781 -122.484375 101.09375 -122.484375 L 68.21875 -122.484375 L 68.21875 -58.609375 C 68.21875 -48.679688 70.390625 -41.238281 74.734375 -36.28125 C 79.078125 -31.320312 86.101562 -28.84375 95.8125 -28.84375 C 99.332031 -28.84375 102.4375 -29.148438 105.125 -29.765625 C 107.8125 -30.390625 110.1875 -30.804688 112.25 -31.015625 C 114.726562 -31.210938 116.796875 -30.429688 118.453125 -28.671875 C 120.109375 -26.921875 120.9375 -23.359375 120.9375 -17.984375 C 120.9375 -13.847656 120.265625 -10.175781 118.921875 -6.96875 C 117.578125 -3.769531 115.148438 -1.550781 111.640625 -0.3125 C 108.953125 0.519531 105.4375 1.296875 101.09375 2.015625 C 96.75 2.734375 92.921875 3.09375 89.609375 3.09375 Z M 89.609375 3.09375 "/></g></g></g><g fill="#38b6ff" fill-opacity="1"><g transform="translate(468.29345, 326.249962)"><g><path d="M 94.890625 3.09375 C 77.734375 3.09375 62.953125 -0.109375 50.546875 -6.515625 C 38.140625 -12.921875 28.578125 -22.015625 21.859375 -33.796875 C 15.140625 -45.578125 11.78125 -59.53125 11.78125 -75.65625 C 11.78125 -91.375 15.035156 -105.125 21.546875 -116.90625 C 28.054688 -128.6875 37.046875 -137.9375 48.515625 -144.65625 C 59.992188 -151.375 73.070312 -154.734375 87.75 -154.734375 C 98.5 -154.734375 108.164062 -152.972656 116.75 -149.453125 C 125.332031 -145.941406 132.671875 -140.878906 138.765625 -134.265625 C 144.867188 -127.648438 149.519531 -119.640625 152.71875 -110.234375 C 155.925781 -100.828125 157.53125 -90.234375 157.53125 -78.453125 C 157.53125 -74.734375 156.238281 -71.890625 153.65625 -69.921875 C 151.070312 -67.960938 147.398438 -66.984375 142.640625 -66.984375 L 43.109375 -66.984375 L 43.109375 -89.3125 L 130.234375 -89.3125 L 125.28125 -84.65625 C 125.28125 -94.164062 123.882812 -102.125 121.09375 -108.53125 C 118.300781 -114.9375 114.269531 -119.84375 109 -123.25 C 103.726562 -126.664062 97.164062 -128.375 89.3125 -128.375 C 80.625 -128.375 73.226562 -126.359375 67.125 -122.328125 C 61.03125 -118.296875 56.378906 -112.609375 53.171875 -105.265625 C 49.972656 -97.929688 48.375 -89.203125 48.375 -79.078125 L 48.375 -76.90625 C 48.375 -59.945312 52.351562 -47.28125 60.3125 -38.90625 C 68.269531 -30.539062 80.003906 -26.359375 95.515625 -26.359375 C 100.890625 -26.359375 106.9375 -27.03125 113.65625 -28.375 C 120.375 -29.71875 126.726562 -32.039062 132.71875 -35.34375 C 137.0625 -37.832031 140.882812 -38.921875 144.1875 -38.609375 C 147.5 -38.296875 150.132812 -37.101562 152.09375 -35.03125 C 154.0625 -32.96875 155.25 -30.4375 155.65625 -27.4375 C 156.070312 -24.445312 155.503906 -21.398438 153.953125 -18.296875 C 152.410156 -15.191406 149.773438 -12.503906 146.046875 -10.234375 C 138.816406 -5.679688 130.5 -2.320312 121.09375 -0.15625 C 111.6875 2.007812 102.953125 3.09375 94.890625 3.09375 Z M 94.890625 3.09375 "/></g></g></g><g fill="#38b6ff" fill-opacity="1"><g transform="translate(636.361284, 326.249962)"><g><path d="M 70.078125 3.09375 C 59.117188 3.09375 49.347656 0.976562 40.765625 -3.25 C 32.191406 -7.488281 25.472656 -13.222656 20.609375 -20.453125 C 15.753906 -27.691406 13.328125 -35.863281 13.328125 -44.96875 C 13.328125 -56.125 16.222656 -64.957031 22.015625 -71.46875 C 27.804688 -77.988281 37.210938 -82.691406 50.234375 -85.578125 C 63.253906 -88.472656 80.722656 -89.921875 102.640625 -89.921875 L 118.140625 -89.921875 L 118.140625 -67.59375 L 102.953125 -67.59375 C 90.128906 -67.59375 79.894531 -66.972656 72.25 -65.734375 C 64.601562 -64.492188 59.175781 -62.375 55.96875 -59.375 C 52.769531 -56.382812 51.171875 -52.203125 51.171875 -46.828125 C 51.171875 -40.003906 53.546875 -34.421875 58.296875 -30.078125 C 63.054688 -25.734375 69.671875 -23.5625 78.140625 -23.5625 C 84.960938 -23.5625 91.007812 -25.164062 96.28125 -28.375 C 101.550781 -31.582031 105.738281 -35.972656 108.84375 -41.546875 C 111.945312 -47.128906 113.5 -53.539062 113.5 -60.78125 L 113.5 -96.4375 C 113.5 -106.769531 111.222656 -114.210938 106.671875 -118.765625 C 102.117188 -123.316406 94.46875 -125.59375 83.71875 -125.59375 C 77.726562 -125.59375 71.269531 -124.867188 64.34375 -123.421875 C 57.414062 -121.972656 50.128906 -119.488281 42.484375 -115.96875 C 38.554688 -114.113281 35.09375 -113.597656 32.09375 -114.421875 C 29.09375 -115.253906 26.765625 -116.960938 25.109375 -119.546875 C 23.460938 -122.128906 22.640625 -124.96875 22.640625 -128.0625 C 22.640625 -131.164062 23.460938 -134.21875 25.109375 -137.21875 C 26.765625 -140.21875 29.554688 -142.441406 33.484375 -143.890625 C 42.992188 -147.816406 52.140625 -150.601562 60.921875 -152.25 C 69.710938 -153.90625 77.726562 -154.734375 84.96875 -154.734375 C 99.851562 -154.734375 112.097656 -152.457031 121.703125 -147.90625 C 131.316406 -143.363281 138.5 -136.492188 143.25 -127.296875 C 148.007812 -118.097656 150.390625 -106.257812 150.390625 -91.78125 L 150.390625 -17.359375 C 150.390625 -10.953125 148.835938 -6.039062 145.734375 -2.625 C 142.640625 0.78125 138.195312 2.484375 132.40625 2.484375 C 126.625 2.484375 122.128906 0.78125 118.921875 -2.625 C 115.710938 -6.039062 114.109375 -10.953125 114.109375 -17.359375 L 114.109375 -32.25 L 116.59375 -32.25 C 115.144531 -25.007812 112.300781 -18.753906 108.0625 -13.484375 C 103.820312 -8.210938 98.5 -4.128906 92.09375 -1.234375 C 85.6875 1.648438 78.347656 3.09375 70.078125 3.09375 Z M 70.078125 3.09375 "/></g></g></g><g fill="#38b6ff" fill-opacity="1"><g transform="translate(805.979517, 326.249962)"><g><path d="M 40 2.484375 C 33.800781 2.484375 29.046875 0.78125 25.734375 -2.625 C 22.429688 -6.039062 20.78125 -10.953125 20.78125 -17.359375 L 20.78125 -134.578125 C 20.78125 -140.984375 22.429688 -145.835938 25.734375 -149.140625 C 29.046875 -152.453125 33.695312 -154.109375 39.6875 -154.109375 C 45.6875 -154.109375 50.335938 -152.453125 53.640625 -149.140625 C 56.953125 -145.835938 58.609375 -140.984375 58.609375 -134.578125 L 58.609375 -111.9375 L 55.203125 -121.25 C 59.335938 -131.582031 65.742188 -139.742188 74.421875 -145.734375 C 83.109375 -151.734375 93.445312 -154.734375 105.4375 -154.734375 C 117.632812 -154.734375 127.660156 -151.835938 135.515625 -146.046875 C 143.367188 -140.265625 148.847656 -131.378906 151.953125 -119.390625 L 147.609375 -119.390625 C 151.742188 -130.347656 158.5625 -138.976562 168.0625 -145.28125 C 177.570312 -151.582031 188.53125 -154.734375 200.9375 -154.734375 C 212.519531 -154.734375 222.082031 -152.457031 229.625 -147.90625 C 237.164062 -143.363281 242.796875 -136.492188 246.515625 -127.296875 C 250.242188 -118.097656 252.109375 -106.46875 252.109375 -92.40625 L 252.109375 -17.359375 C 252.109375 -10.953125 250.398438 -6.039062 246.984375 -2.625 C 243.578125 0.78125 238.769531 2.484375 232.5625 2.484375 C 226.363281 2.484375 221.609375 0.78125 218.296875 -2.625 C 214.992188 -6.039062 213.34375 -10.953125 213.34375 -17.359375 L 213.34375 -90.859375 C 213.34375 -102.429688 211.429688 -110.90625 207.609375 -116.28125 C 203.785156 -121.65625 197.328125 -124.34375 188.234375 -124.34375 C 178.097656 -124.34375 170.132812 -120.773438 164.34375 -113.640625 C 158.5625 -106.515625 155.671875 -96.644531 155.671875 -84.03125 L 155.671875 -17.359375 C 155.671875 -10.953125 154.015625 -6.039062 150.703125 -2.625 C 147.398438 0.78125 142.644531 2.484375 136.4375 2.484375 C 130.238281 2.484375 125.429688 0.78125 122.015625 -2.625 C 118.609375 -6.039062 116.90625 -10.953125 116.90625 -17.359375 L 116.90625 -90.859375 C 116.90625 -102.429688 114.992188 -110.90625 111.171875 -116.28125 C 107.347656 -121.65625 100.988281 -124.34375 92.09375 -124.34375 C 81.96875 -124.34375 74.007812 -120.773438 68.21875 -113.640625 C 62.425781 -106.515625 59.53125 -96.644531 59.53125 -84.03125 L 59.53125 -17.359375 C 59.53125 -4.128906 53.019531 2.484375 40 2.484375 Z M 40 2.484375 "/></g></g></g><g fill="#38b6ff" fill-opacity="1"><g transform="translate(1077.926907, 326.249962)"><g><path d="M 71.9375 3.09375 C 54.78125 3.09375 41.859375 -1.8125 33.171875 -11.625 C 24.492188 -21.445312 20.15625 -35.867188 20.15625 -54.890625 L 20.15625 -201.5625 C 20.15625 -207.96875 21.804688 -212.820312 25.109375 -216.125 C 28.421875 -219.4375 33.175781 -221.09375 39.375 -221.09375 C 45.582031 -221.09375 50.390625 -219.4375 53.796875 -216.125 C 57.210938 -212.820312 58.921875 -207.96875 58.921875 -201.5625 L 58.921875 -56.75 C 58.921875 -47.238281 60.9375 -40.207031 64.96875 -35.65625 C 69 -31.113281 74.734375 -28.84375 82.171875 -28.84375 C 83.828125 -28.84375 85.378906 -28.894531 86.828125 -29 C 88.273438 -29.101562 89.722656 -29.253906 91.171875 -29.453125 C 94.066406 -29.867188 96.03125 -29.09375 97.0625 -27.125 C 98.09375 -25.164062 98.609375 -21.1875 98.609375 -15.1875 C 98.609375 -10.019531 97.570312 -5.988281 95.5 -3.09375 C 93.4375 -0.207031 90.03125 1.546875 85.28125 2.171875 C 83.207031 2.378906 81.035156 2.582031 78.765625 2.78125 C 76.492188 2.988281 74.21875 3.09375 71.9375 3.09375 Z M 71.9375 3.09375 "/></g></g></g><g fill="#38b6ff" fill-opacity="1"><g transform="translate(1176.845047, 326.249962)"><g><path d="M 58.609375 58.296875 C 54.054688 58.296875 50.332031 57.109375 47.4375 54.734375 C 44.550781 52.359375 42.847656 49.203125 42.328125 45.265625 C 41.804688 41.335938 42.476562 37.207031 44.34375 32.875 L 65.4375 -13.953125 L 65.4375 2.171875 L 9 -128.375 C 7.132812 -132.925781 6.507812 -137.164062 7.125 -141.09375 C 7.75 -145.019531 9.660156 -148.171875 12.859375 -150.546875 C 16.066406 -152.921875 20.460938 -154.109375 26.046875 -154.109375 C 30.804688 -154.109375 34.628906 -153.023438 37.515625 -150.859375 C 40.410156 -148.691406 43 -144.609375 45.28125 -138.609375 L 87.140625 -34.109375 L 77.828125 -34.109375 L 120.625 -138.921875 C 122.894531 -144.710938 125.582031 -148.691406 128.6875 -150.859375 C 131.789062 -153.023438 135.925781 -154.109375 141.09375 -154.109375 C 145.644531 -154.109375 149.265625 -152.921875 151.953125 -150.546875 C 154.640625 -148.171875 156.289062 -145.070312 156.90625 -141.25 C 157.53125 -137.425781 156.804688 -133.238281 154.734375 -128.6875 L 79.390625 43.40625 C 76.703125 49.195312 73.804688 53.125 70.703125 55.1875 C 67.597656 57.257812 63.566406 58.296875 58.609375 58.296875 Z M 58.609375 58.296875 "/></g></g></g><g clip-path="url(#48ec6ee25e)"><g clip-path="url(#bfe43ebc8c)"><g clip-path="url(#6f4f0a0021)"><path fill="#38b6ff" d="M 291.492188 131.957031 C 281.484375 156.347656 270.652344 183.175781 260.644531 207.5625 C 260.664062 207.570312 260.675781 207.582031 260.695312 207.59375 C 260.996094 207.753906 261.300781 207.9375 261.605469 208.167969 C 261.925781 208.378906 262.207031 208.609375 262.464844 208.851562 C 265.214844 211.109375 267.53125 213.863281 269.320312 216.917969 C 280.171875 190.460938 291.855469 161.566406 302.707031 135.113281 C 298.796875 134.816406 294.949219 133.75 291.492188 131.957031 Z M 291.492188 131.957031 " fill-opacity="1" fill-rule="nonzero"/></g></g></g><g clip-path="url(#73aae187d2)"><g clip-path="url(#ab94dfcb3e)"><g clip-path="url(#51b32f1cef)"><path fill="#38b6ff" d="M 146.585938 203.660156 C 148.21875 207.65625 148.859375 211.957031 148.570312 216.1875 C 171.703125 222.429688 197.273438 229.5 220.40625 235.746094 C 219.5 231.808594 219.425781 227.695312 220.316406 223.730469 C 196.550781 217.316406 170.347656 210.078125 146.585938 203.660156 Z M 146.585938 203.660156 " fill-opacity="1" fill-rule="nonzero"/></g></g></g><g clip-path="url(#23f7d4b878)"><g clip-path="url(#f0863d1524)"><g clip-path="url(#87c1ef612a)"><path fill="#38b6ff" d="M 66.988281 312.546875 C 61.421875 311.476562 55.417969 312.089844 49.496094 314.625 C 35.105469 320.796875 31.242188 338.488281 36.925781 351.742188 C 43.097656 366.140625 60.789062 370 74.042969 364.316406 C 87.859375 358.394531 91.945312 341.863281 87.226562 328.824219 C 87.105469 328.292969 86.929688 327.757812 86.613281 327.199219 C 86.367188 326.621094 86.054688 326.160156 85.714844 325.746094 C 83.484375 322.210938 80.75 319.292969 77.644531 317.089844 C 88.292969 291.140625 99.351562 263.972656 110 238.023438 C 106.371094 236.238281 103.140625 233.664062 100.640625 230.339844 C 89.5625 257.335938 78.070312 285.550781 66.988281 312.546875 Z M 47.324219 346.605469 C 37.117188 328.472656 66.058594 314.292969 76.214844 332.332031 C 84.410156 351.449219 57.527344 364.730469 47.324219 346.605469 Z M 47.324219 346.605469 " fill-opacity="1" fill-rule="nonzero"/></g></g></g><g clip-path="url(#312706262e)"><g clip-path="url(#3d5b157816)"><g clip-path="url(#e737833279)"><path fill="#38b6ff" d="M 145.367188 199.441406 C 145.246094 199.257812 145.117188 199.085938 144.988281 198.914062 C 144.84375 198.65625 144.6875 198.402344 144.5 198.152344 C 135.96875 186.8125 120.042969 183.722656 107.890625 191.050781 C 95.535156 198.5 91.574219 214.117188 97.472656 226.949219 C 98.242188 228.617188 99.171875 230.152344 100.226562 231.554688 C 102.726562 234.882812 105.957031 237.457031 109.585938 239.238281 C 117.621094 243.1875 127.585938 243.246094 135.765625 238.898438 C 144.285156 234.367188 149.171875 225.660156 149.792969 216.597656 C 150.082031 212.371094 149.441406 208.070312 147.804688 204.070312 C 147.148438 202.472656 146.34375 200.917969 145.367188 199.441406 Z M 130.625 228.5 C 122.402344 233.523438 112.367188 229.851562 107.875 221.8125 C 103.832031 214.574219 107.191406 205.957031 113.316406 201.265625 C 120.496094 195.765625 130.28125 198.992188 135.441406 205.371094 C 140.179688 213.28125 138.992188 223.386719 130.625 228.5 Z M 130.625 228.5 " fill-opacity="1" fill-rule="nonzero"/></g></g></g><g clip-path="url(#10d62088e5)"><g clip-path="url(#9e3836bcca)"><g clip-path="url(#64877e65db)"><path fill="#38b6ff" d="M 262.015625 206.945312 C 261.714844 206.714844 261.410156 206.53125 261.109375 206.371094 C 261.089844 206.359375 261.074219 206.351562 261.058594 206.339844 C 248.210938 198.507812 232.070312 201.917969 223.207031 214.179688 C 221.15625 217.015625 219.8125 220.117188 219.09375 223.316406 C 218.203125 227.28125 218.28125 231.394531 219.1875 235.332031 C 220.808594 242.382812 225.085938 248.894531 231.25 253.027344 C 243.464844 261.226562 259.40625 257.1875 268.320312 246.324219 C 275.730469 237.292969 275.25 225.09375 269.738281 215.695312 C 267.949219 212.640625 265.628906 209.886719 262.878906 207.628906 C 262.621094 207.390625 262.339844 207.15625 262.015625 206.945312 Z M 259.339844 238.96875 C 254.976562 245.675781 245.539062 247.578125 238.636719 243.941406 C 230.628906 239.722656 227.863281 229.574219 232.160156 221.726562 C 236.867188 213.121094 247.84375 211.46875 255.628906 216.628906 C 262.789062 222.054688 264.152344 231.574219 259.339844 238.96875 Z M 259.339844 238.96875 " fill-opacity="1" fill-rule="nonzero"/></g></g></g><g clip-path="url(#461b4af290)"><g clip-path="url(#14dd0169e4)"><g clip-path="url(#879d5da25b)"><path fill="#38b6ff" d="M 328.660156 95.539062 C 321.847656 82.664062 305.960938 78.246094 293.007812 83.6875 C 292.71875 83.789062 292.425781 83.910156 292.128906 84.066406 C 291.824219 84.207031 291.554688 84.367188 291.296875 84.53125 C 278.613281 91.75 273.679688 106.464844 279.03125 120.058594 C 281.375 126.003906 285.773438 130.4375 291.078125 133.179688 C 294.535156 134.972656 298.378906 136.039062 302.296875 136.332031 C 307.988281 136.761719 313.828125 135.554688 318.828125 132.539062 C 331.5 124.898438 335.480469 108.421875 328.660156 95.539062 Z M 313.40625 122.324219 C 305.050781 128.722656 293.398438 123.535156 289.4375 114.917969 C 285.894531 107.210938 290.1875 98.210938 297.265625 94.464844 C 304.867188 90.972656 313.871094 93.394531 318.261719 100.675781 C 322.8125 108.226562 320.085938 117.203125 313.40625 122.324219 Z M 313.40625 122.324219 " fill-opacity="1" fill-rule="nonzero"/></g></g></g><g clip-path="url(#6940d85059)"><g clip-path="url(#8d429f85e0)"><path fill="#38b6ff" d="M 212.789062 200.109375 L 274.292969 200.109375 L 274.292969 261.617188 L 212.789062 261.617188 Z M 212.789062 200.109375 " fill-opacity="1" fill-rule="nonzero"/></g></g><g clip-path="url(#39dcd4b752)"><g clip-path="url(#8457d5bfc5)"><path fill="#38b6ff" d="M 29.652344 308.738281 L 91.160156 308.738281 L 91.160156 370.246094 L 29.652344 370.246094 Z M 29.652344 308.738281 " fill-opacity="1" fill-rule="nonzero"/></g></g></svg>